<svg xmlns="http://www.w3.org/2000/svg" xmlns:xlink="http://www.w3.org/1999/xlink" width="220" height="220" viewBox="0 0 220 220">
  <defs>
    <linearGradient id="linear-gradient" x1="0.551" x2="0.155" y2="0.214" gradientUnits="objectBoundingBox">
      <stop offset="0" stop-color="#ff3c38"/>
      <stop offset="0.258" stop-color="#fd5958"/>
      <stop offset="0.686" stop-color="#f7b4bc"/>
      <stop offset="1" stop-color="#f5d7e3"/>
    </linearGradient>
    <linearGradient id="linear-gradient-2" x1="0.5" x2="0.107" y2="0.191" gradientUnits="objectBoundingBox">
      <stop offset="0" stop-color="#4a96ff"/>
      <stop offset="1" stop-color="#cf64ff"/>
    </linearGradient>
  </defs>
  <g id="Group_24" data-name="Group 24" transform="translate(-4985.999 -454)">
    <path id="Path_278" data-name="Path 278" d="M109.77,0A109.77,109.77,0,1,1,0,109.77,109.77,109.77,0,0,1,109.77,0Z" transform="translate(4986 454)" fill="#fff"/>
    <path id="Path_326" data-name="Path 326" d="M88.77,0A88.77,88.77,0,1,1,0,88.77,88.77,88.77,0,0,1,88.77,0Z" transform="translate(5008 476)" fill="#efefef"/>
    <path id="Path_277" data-name="Path 277" d="M-18-116.082a11.184,11.184,0,0,1,3.732-8.341,11.166,11.166,0,0,1,8.7-2.768,110.034,110.034,0,0,1,96.017,91A110.107,110.107,0,0,1,29.721,81.37a109.934,109.934,0,0,1-129.7-25.784A110.154,110.154,0,0,1-111.2-76.28a11.171,11.171,0,0,1,7.588-5.083,11.165,11.165,0,0,1,8.843,2.28h0a11.187,11.187,0,0,1,2.5,14.679A87.779,87.779,0,0,0-83.33,40.677,87.6,87.6,0,0,0,20.027,61.224,87.741,87.741,0,0,0,68.418-32.46,87.683,87.683,0,0,0-8.1-104.974,11.177,11.177,0,0,1-18-116.082Z" transform="translate(5114 581.723)" fill="url(#linear-gradient)"/>
    <text id="_04.00" data-name="04.00" transform="translate(5096 571)" fill="#033693" font-size="40" font-family="ArialMT, Arial"><tspan x="-50.049" y="0">04.00</tspan></text>
    <text id="Total_Activity_1518" data-name="Total Activity
1518" transform="translate(5096 595)" fill="#4d59de" font-size="16" font-family="ArialMT, Arial"><tspan x="-44.016" y="0">Total Activity</tspan><tspan x="-17.797" y="18">1518</tspan></text>
    <text id="Level_2" data-name="Level 2" transform="translate(5096 529)" fill="#4d59de" font-size="20" font-family="ArialMT, Arial"><tspan x="-32.246" y="0">Level 2</tspan></text>
    <path id="Path_325" data-name="Path 325" d="M-18-116.082a11.184,11.184,0,0,1,3.732-8.341,11.166,11.166,0,0,1,8.7-2.768,110.034,110.034,0,0,1,96.017,91A110.107,110.107,0,0,1,29.721,81.37a109.934,109.934,0,0,1-129.7-25.784A110.154,110.154,0,0,1-111.2-76.28a11.171,11.171,0,0,1,7.588-5.083,11.165,11.165,0,0,1,8.843,2.28h0a11.187,11.187,0,0,1,2.5,14.679A87.779,87.779,0,0,0-83.33,40.677,87.6,87.6,0,0,0,20.027,61.224,87.741,87.741,0,0,0,68.418-32.46,87.683,87.683,0,0,0-8.1-104.974,11.177,11.177,0,0,1-18-116.082Z" transform="translate(5114 581.723)" fill="url(#linear-gradient-2)"/>
  </g>
</svg>
