<svg xmlns="http://www.w3.org/2000/svg" width="34" height="34" viewBox="0 0 34 34">
  <path id="Path_328" data-name="Path 328" d="M3,6.778V33.222A3.789,3.789,0,0,0,6.778,37H33.222A3.789,3.789,0,0,0,37,33.222V6.778A3.789,3.789,0,0,0,33.222,3H6.778A3.789,3.789,0,0,0,3,6.778ZM18.111,33.222H8.667a1.894,1.894,0,0,1-1.889-1.889V21.889h9.444a1.894,1.894,0,0,1,1.889,1.889ZM16.222,18.111H6.778V8.667A1.894,1.894,0,0,1,8.667,6.778h9.444v9.444A1.894,1.894,0,0,1,16.222,18.111ZM31.333,33.222H21.889V23.778a1.894,1.894,0,0,1,1.889-1.889h9.444v9.444A1.894,1.894,0,0,1,31.333,33.222Zm1.889-15.111H23.778a1.894,1.894,0,0,1-1.889-1.889V6.778h9.444a1.894,1.894,0,0,1,1.889,1.889Z" transform="translate(-3 -3)" fill="#4d59de"/>
</svg>
