<svg id="local_fire_department-white-18dp" xmlns="http://www.w3.org/2000/svg" width="24" height="24" viewBox="0 0 24 24">
  <g id="Group_37" data-name="Group 37">
    <rect id="Rectangle_102" data-name="Rectangle 102" width="24" height="24" fill="none"/>
  </g>
  <g id="Group_38" data-name="Group 38">
    <path id="Path_307" data-name="Path 307" d="M19.48,12.35c-1.57-4.08-7.16-4.3-5.81-10.23a.5.5,0,0,0-.75-.55A9.33,9.33,0,0,0,8.87,13.62a.5.5,0,0,1-.75.59A4.979,4.979,0,0,1,6.28,9.46a.5.5,0,0,0-.91-.34A9.4,9.4,0,0,0,4,14.37a8.053,8.053,0,0,0,6.81,7.54,8.578,8.578,0,0,0,6.95-1.87A6.914,6.914,0,0,0,19.48,12.35ZM10.2,17.38a3.09,3.09,0,0,0,2.38-2.31c.33-1.43-.96-2.83-.09-5.09.33,1.87,3.27,3.04,3.27,5.08C15.84,17.59,13.1,19.76,10.2,17.38Z" fill="#fff"/>
  </g>
</svg>
