<svg xmlns="http://www.w3.org/2000/svg" width="37.895" height="38" viewBox="0 0 37.895 38">
  <path id="Path_330" data-name="Path 330" d="M37.173,7.909h-6.75V2.727a1.731,1.731,0,0,0-3.462,0V7.909h-6.75a1.745,1.745,0,0,0-1.731,1.9l.208,2.09c6.369,1.468,11.734,5.976,11.734,13.283L30.457,39H33.4a2.873,2.873,0,0,0,2.821-2.539L38.886,9.809A1.722,1.722,0,0,0,37.173,7.909ZM25.231,35.545H2.731a1.727,1.727,0,1,0,0,3.455h22.5a1.727,1.727,0,1,0,0-3.455ZM2.9,25.182H25.057a1.715,1.715,0,0,0,1.713-2C25.646,17.6,19.813,14.8,13.981,14.8S2.333,17.6,1.19,23.178a1.724,1.724,0,0,0,1.713,2Zm22.327,3.455H2.731a1.727,1.727,0,1,0,0,3.455h22.5a1.727,1.727,0,1,0,0-3.455Z" transform="translate(-1 -1)" fill="#4d59de"/>
</svg>
