<svg id="home-24px" xmlns="http://www.w3.org/2000/svg" width="24" height="24" viewBox="0 0 24 24">
  <path id="Path_7" data-name="Path 7" d="M0,0H24V24H0Z" fill="none"/>
  <path id="Path_8" data-name="Path 8" d="M10,19.931v-5.3h4v5.3a1.034,1.034,0,0,0,1,1.059h3a1.034,1.034,0,0,0,1-1.059V12.514h1.7a.53.53,0,0,0,.33-.922L12.67,3.615a.966.966,0,0,0-1.34,0L2.97,11.593a.533.533,0,0,0,.33.922H5v7.416A1.034,1.034,0,0,0,6,20.99H9A1.034,1.034,0,0,0,10,19.931Z" transform="translate(0 0.121)" fill="#033693"/>
</svg>
