<svg xmlns="http://www.w3.org/2000/svg" width="36.523" height="36.551" viewBox="0 0 36.523 36.551">
  <g id="clapperboard" transform="translate(-0.198 -0.001)">
    <g id="Group_58" data-name="Group 58" transform="translate(1.68 21.317)">
      <g id="Group_57" data-name="Group 57">
        <path id="Path_334" data-name="Path 334" d="M20.949,298.483v11.426a3.813,3.813,0,0,0,3.809,3.809H52.181a3.812,3.812,0,0,0,3.809-3.809V298.483Z" transform="translate(-20.949 -298.483)" fill="#4d59de"/>
      </g>
    </g>
    <g id="Group_60" data-name="Group 60" transform="translate(12.533 3.484)">
      <g id="Group_59" data-name="Group 59">
        <path id="Path_335" data-name="Path 335" d="M178.628,48.776l-5.7,1.353,4.776,7.028,6.175-1.4Z" transform="translate(-172.927 -48.776)" fill="#4d59de"/>
      </g>
    </g>
    <g id="Group_62" data-name="Group 62" transform="translate(4.804 5.213)">
      <g id="Group_61" data-name="Group 61">
        <path id="Path_336" data-name="Path 336" d="M70.847,72.99,64.7,74.446l4.726,6.963L75.613,80Z" transform="translate(-64.703 -72.99)" fill="#4d59de"/>
      </g>
    </g>
    <g id="Group_64" data-name="Group 64" transform="translate(27.549 0.001)">
      <g id="Group_63" data-name="Group 63">
        <path id="Path_337" data-name="Path 337" d="M392.335,6.648l-1.3-4.918A2.3,2.3,0,0,0,388.307.058l-5.119,1.216,4.857,7.161,3.722-.847a.759.759,0,0,0,.483-.349A.768.768,0,0,0,392.335,6.648Z" transform="translate(-383.188 -0.001)" fill="#4d59de"/>
      </g>
    </g>
    <g id="Group_66" data-name="Group 66" transform="translate(19.852 1.65)">
      <g id="Group_65" data-name="Group 65">
        <path id="Path_338" data-name="Path 338" d="M281.524,23.091l-6.111,1.45,5.259,6.991,5.7-1.3Z" transform="translate(-275.413 -23.091)" fill="#4d59de"/>
      </g>
    </g>
    <g id="Group_68" data-name="Group 68" transform="translate(6.919 13.701)">
      <g id="Group_67" data-name="Group 67">
        <path id="Path_339" data-name="Path 339" d="M96.752,191.838l-2.438,6.093h5.977l2.438-6.093Z" transform="translate(-94.314 -191.838)" fill="#4d59de"/>
      </g>
    </g>
    <g id="Group_70" data-name="Group 70" transform="translate(14.536 13.701)">
      <g id="Group_69" data-name="Group 69">
        <path id="Path_340" data-name="Path 340" d="M203.419,191.838l-2.438,6.093h5.977l2.438-6.093Z" transform="translate(-200.981 -191.838)" fill="#4d59de"/>
      </g>
    </g>
    <g id="Group_72" data-name="Group 72" transform="translate(29.772 13.701)">
      <g id="Group_71" data-name="Group 71">
        <path id="Path_341" data-name="Path 341" d="M420.5,191.838h-3.749l-2.438,6.094h6.949V192.6A.76.76,0,0,0,420.5,191.838Z" transform="translate(-414.315 -191.838)" fill="#4d59de"/>
      </g>
    </g>
    <g id="Group_74" data-name="Group 74" transform="translate(22.154 13.701)">
      <g id="Group_73" data-name="Group 73">
        <path id="Path_342" data-name="Path 342" d="M310.085,191.838l-2.438,6.093h5.975l2.439-6.093Z" transform="translate(-307.647 -191.838)" fill="#4d59de"/>
      </g>
    </g>
    <g id="Group_76" data-name="Group 76" transform="translate(0.198 7.047)">
      <g id="Group_75" data-name="Group 75" transform="translate(0)">
        <path id="Path_343" data-name="Path 343" d="M3.22,98.675l-1.242.294a2.284,2.284,0,0,0-1.711,2.783l1.412,5.582v4.086h3.6l2.287-5.715.372-.084Z" transform="translate(-0.198 -98.675)" fill="#4d59de"/>
      </g>
    </g>
  </g>
</svg>
