<svg id="Group_56" data-name="Group 56" xmlns="http://www.w3.org/2000/svg" width="35" height="35" viewBox="0 0 35 35">
  <path id="Path_333" data-name="Path 333" d="M17.5,0A17.52,17.52,0,0,0,0,17.5V31.25A3.75,3.75,0,0,0,3.75,35h5A1.25,1.25,0,0,0,10,33.75V21.25A1.25,1.25,0,0,0,8.75,20h-5a3.708,3.708,0,0,0-1.25.231V17.5a15,15,0,0,1,30,0v2.731A3.708,3.708,0,0,0,31.25,20h-5A1.25,1.25,0,0,0,25,21.25v12.5A1.25,1.25,0,0,0,26.25,35h5A3.75,3.75,0,0,0,35,31.25V17.5A17.52,17.52,0,0,0,17.5,0Z" fill="#4d59de"/>
</svg>
