<svg xmlns="http://www.w3.org/2000/svg" width="28.346" height="23.318" viewBox="0 0 28.346 23.318">
  <g id="shake_icon" data-name="shake icon" transform="translate(-5173.29 -1470.307)">
    <path id="Path_313" data-name="Path 313" d="M3.332,18.219H6.79a3.332,3.332,0,0,0,3.332-3.332V3.332A3.332,3.332,0,0,0,6.79,0H3.332A3.332,3.332,0,0,0,0,3.332V14.887A3.332,3.332,0,0,0,3.332,18.219Z" transform="translate(5195.583 1488.405) rotate(158)" fill="#fff"/>
    <path id="Path_314" data-name="Path 314" d="M1.151,7.479C5.221,2.936,0,0,0,0" transform="translate(5176.301 1478.687) rotate(-150)" fill="none" stroke="#fff" stroke-width="1"/>
    <path id="Path_317" data-name="Path 317" d="M1.817,7.761C5.887,3.218,0,0,0,0" transform="translate(5198.144 1484.725) rotate(30)" fill="none" stroke="#fff" stroke-width="1"/>
    <path id="Path_315" data-name="Path 315" d="M1.549,6.945C5.485,2.552,0,0,0,0" transform="translate(5179.223 1479.805) rotate(-150)" fill="none" stroke="#fff" stroke-width="1"/>
    <path id="Path_316" data-name="Path 316" d="M1.549,6.945C5.485,2.552,0,0,0,0" transform="translate(5196.128 1484.513) rotate(30)" fill="none" stroke="#fff" stroke-width="1"/>
  </g>
</svg>
