<svg xmlns="http://www.w3.org/2000/svg" width="22.154" height="24" viewBox="0 0 22.154 24">
  <g id="step" transform="translate(-71.655 0)">
    <path id="Path_306" data-name="Path 306" d="M85.176,18.006c1.655.443,3.117.726,5.217,1.23C89.586,27.209,79.947,24.043,85.176,18.006Zm8.606-7.324c-.109-2.394-.648-5.534-4.942-5.042-2.013.411-3.5,2.14-4.2,5.123a11.289,11.289,0,0,0,.292,5.323c.414.973.273.913.718,1.1,1.721.3,3.425.639,5.161.981C92.574,17.191,94.022,12.021,93.782,10.682ZM80.53,10.5a11.3,11.3,0,0,0,.292-5.323c-.7-2.983-2.187-4.713-4.2-5.123C72.328-.44,71.789,2.7,71.681,5.094c-.24,1.339,1.208,6.509,2.971,7.483,1.735-.342,3.439-.678,5.161-.981C80.257,11.411,80.116,11.47,80.53,10.5Zm-5.46,3.151c.806,7.973,10.446,4.806,5.217-1.23C78.631,12.861,77.17,13.144,75.07,13.648Z" transform="translate(0 0)" fill="#fff"/>
  </g>
</svg>
