<svg xmlns="http://www.w3.org/2000/svg" width="21.916" height="28.682" viewBox="0 0 21.916 28.682">
  <g id="tap" transform="translate(-1.692 -47.412)">
    <g id="Group_41" data-name="Group 41" transform="translate(11.401 54.178) rotate(45)">
      <g id="Group_40" data-name="Group 40" transform="translate(0 0)">
        <g id="Group_39" data-name="Group 39">
          <path id="Path_308" data-name="Path 308" d="M15.993,4.156,12.649.483a1.734,1.734,0,0,0-2.407.005,1.663,1.663,0,0,0-.429.734,1.735,1.735,0,0,0-2.238.155,1.686,1.686,0,0,0-.431.734,1.734,1.734,0,0,0-2.236.156,1.688,1.688,0,0,0-.427.718L2.9,1.409A1.7,1.7,0,0,0,.5,3.816L6.55,9.869l-3.589.564a1.992,1.992,0,0,0-1.7,1.962,1.335,1.335,0,0,0,1.334,1.334h8.384a4.865,4.865,0,0,0,3.46-1.433l1.4-1.4a4.884,4.884,0,0,0,.159-6.741ZM15.2,10.269l-1.4,1.4c-.757.756,3.709-3.408,2.642-3.408L2.054,11.785c-.245,0,.094.855.094.61,0-.541,7.673.449,8.214.371l4.972-8.01C14.1,3.74,7.853,10.468,7.905,10.309A.445.445,0,0,0,7.8,9.858L5.061,4.193C4.747,3.878,1.909,1.921,2.229,1.6c.158-.157-.733.2-.526.2a.807.807,0,0,1,.573.237L4.887,4.648l.021.021L6.725,6.486a.445.445,0,1,0,.629-.629L5.521,4.025c-.3-.317-.21,1.174.02-1.135-2.534,4.234.838-.306,1.143,0l.874.875.015.015.928.927a.445.445,0,1,0,.629-.629l-.939-.938A.815.815,0,0,1,8.209,2,.829.829,0,0,1,9.353,2l.928.932,0,0h0l0,0h0A.445.445,0,0,0,10.91,2.3l-.053-.053a.813.813,0,0,1,.02-1.135c.306-.3-.249-.3.028-.028L10.554.8C-1.394,5.912,7.126,8.882,7.126,9.879,7.126,10.945,15.958,9.514,15.2,10.269Z" fill="#fff"/>
          <path id="Path_309" data-name="Path 309" d="M0,0H0Z" transform="translate(10.286 2.936)" fill="#fff"/>
        </g>
      </g>
    </g>
    <g id="Group_43" data-name="Group 43" transform="translate(10.745 49.785) rotate(45)">
      <g id="Group_42" data-name="Group 42" transform="translate(0 0)">
        <path id="Path_310" data-name="Path 310" d="M7.184,2.29A3.957,3.957,0,0,0,3.706,0,3.616,3.616,0,0,0,0,3.706,3.959,3.959,0,0,0,2.289,7.184a.431.431,0,0,0,.174.04.4.4,0,0,0,.378-.24.433.433,0,0,0-.22-.559A3.078,3.078,0,0,1,.84,3.722,2.812,2.812,0,0,1,3.722.84a3.078,3.078,0,0,1,2.7,1.781.432.432,0,0,0,.559.22A.408.408,0,0,0,7.184,2.29Z" fill="#fff"/>
      </g>
    </g>
    <g id="Group_45" data-name="Group 45" transform="translate(10.745 47.412) rotate(45)">
      <g id="Group_44" data-name="Group 44" transform="translate(0 0)">
        <path id="Path_311" data-name="Path 311" d="M10.692,4.149A5.711,5.711,0,0,0,5.353,0,5.222,5.222,0,0,0,0,5.353,5.711,5.711,0,0,0,4.15,10.692a.4.4,0,0,0,.108.016.4.4,0,0,0,.4-.3.436.436,0,0,0-.307-.519A4.833,4.833,0,0,1,.84,5.369,4.419,4.419,0,0,1,5.369.84a4.832,4.832,0,0,1,4.517,3.51.433.433,0,0,0,.519.307A.4.4,0,0,0,10.692,4.149Z" fill="#fff"/>
      </g>
    </g>
  </g>
</svg>
