<svg xmlns="http://www.w3.org/2000/svg" width="35" height="34" viewBox="0 0 35 34">
  <g id="tshirt" transform="translate(0 -2.514)">
    <g id="Group_55" data-name="Group 55" transform="translate(0 2.514)">
      <g id="Group_54" data-name="Group 54" transform="translate(0 0)">
        <path id="Path_331" data-name="Path 331" d="M115.652,486.058h18.966V484.79H115.652Z" transform="translate(-107.635 -452.058)" fill="#4d59de"/>
        <path id="Path_332" data-name="Path 332" d="M27.816,5.143a3.176,3.176,0,0,0-1.06-.523L23.023,3.575a.636.636,0,0,1-.274-.158l-.922-.9A9.6,9.6,0,0,1,17.5,3.6a9.6,9.6,0,0,1-4.327-1.084l-.922.9a.636.636,0,0,1-.274.158L8.244,4.62a3.177,3.177,0,0,0-1.06.523L0,10.557l4.352,6.4L5.562,16,2.416,11.382a.612.612,0,0,1,.179-.855.641.641,0,0,1,.874.167l3.084,4.532.424-.332a.644.644,0,0,1,.67-.075.619.619,0,0,1,.359.559v18.6H26.994v-18.6a.619.619,0,0,1,.359-.559.644.644,0,0,1,.67.075l.424.332,3.084-4.532a.641.641,0,0,1,.876-.169.612.612,0,0,1,.177.857L29.438,16l1.21.948L35,10.557Z" transform="translate(0 -2.514)" fill="#4d59de"/>
      </g>
    </g>
  </g>
</svg>
